<svg width="146" height="146" viewBox="0 0 146 146" fill="none" xmlns="http://www.w3.org/2000/svg">
<path d="M103.125 60.9375C97.3898 60.9348 91.7149 62.109 86.4516 64.3875L80.4985 58.4344C77.5842 55.5032 74.1172 53.1794 70.2985 51.5975C66.4797 50.0156 62.3851 49.2071 58.2516 49.2188C57.8006 49.219 57.3627 49.0668 57.009 48.787C56.6552 48.5072 56.4063 48.1161 56.3027 47.6771C56.1991 47.2381 56.2467 46.777 56.438 46.3685C56.6292 45.96 56.9528 45.6281 57.3563 45.4266L68.9063 39.6539C70.7672 38.7173 72.3261 37.2748 73.404 35.4921C74.4819 33.7094 75.0351 31.6587 75.0001 29.5758C74.9945 26.7047 73.8508 23.9529 71.8198 21.9237C69.7888 19.8944 67.036 18.7531 64.1649 18.75H53.5641C53.1131 18.7502 52.6752 18.5981 52.3215 18.3183C51.9677 18.0384 51.7188 17.6473 51.6152 17.2084C51.5116 16.7694 51.5592 16.3083 51.7505 15.8998C51.9417 15.4913 52.2653 15.1594 52.6688 14.9578L57.2415 12.6727C58.5898 11.9989 59.671 10.8896 60.3099 9.52446C60.9488 8.15934 61.1079 6.61845 60.7614 5.15157C60.415 3.68469 59.5833 2.37781 58.4012 1.44277C57.219 0.507726 55.7557 -0.00066621 54.2485 6.55215e-07H38.4024C36.2991 0.00248176 34.2826 0.839137 32.7953 2.32644C31.308 3.81374 30.4713 5.83024 30.4688 7.93359C30.4707 8.58292 30.277 9.21775 29.9128 9.75537C29.5487 10.293 29.0311 10.7085 28.4274 10.9477C25.5649 12.0822 23.1106 14.0528 21.3844 16.6026C19.6582 19.1524 18.7402 22.1631 18.7501 25.2422V32.5359C18.7453 33.7614 19.0837 34.9637 19.7269 36.0067C20.3702 37.0497 21.2927 37.8918 22.3899 38.4375C22.7061 38.593 22.9721 38.8344 23.1574 39.1341C23.3427 39.4338 23.4398 39.7797 23.4376 40.132V44.5312C23.4376 46.3961 24.1784 48.1845 25.497 49.5031C26.8156 50.8217 28.604 51.5625 30.4688 51.5625C31.0904 51.5625 31.6866 51.8094 32.1261 52.249C32.5656 52.6885 32.8126 53.2846 32.8126 53.9062V59.7656C32.8126 61.9412 33.6768 64.0277 35.2152 65.5661C36.7536 67.1045 38.8401 67.9688 41.0157 67.9688C41.9481 67.9687 42.8423 68.3391 43.5016 68.9985C44.1609 69.6578 44.5313 70.552 44.5313 71.4844C44.5356 73.0057 45.0331 74.4847 45.9493 75.6992C46.8655 76.9138 48.1509 77.7984 49.6126 78.2203L57.2415 80.4C58.3068 80.7074 59.2434 81.3528 59.9101 82.2389C60.5767 83.1249 60.9374 84.2037 60.9376 85.3125C60.9381 86.1206 60.6784 86.9075 60.1968 87.5564C59.7153 88.2054 59.0376 88.6821 58.264 88.9159C57.4904 89.1496 56.6621 89.128 55.9017 88.8543C55.1414 88.5806 54.4894 88.0693 54.0423 87.3961L53.611 86.7516C52.6487 85.2996 51.3417 84.1085 49.8068 83.2848C48.2719 82.4611 46.5569 82.0305 44.8149 82.0312C43.3681 82.0311 41.9537 82.4601 40.7507 83.2638C39.5477 84.0676 38.61 85.2101 38.0564 86.5467C37.5027 87.8834 37.3578 89.3543 37.6401 90.7733C37.9224 92.1923 38.6192 93.4957 39.6423 94.5187C40.4517 95.324 41.0934 96.2817 41.5303 97.3365C41.9671 98.3914 42.1906 99.5223 42.1876 100.664C42.1885 101.514 41.9047 102.34 41.3813 103.01C40.8579 103.68 40.1252 104.155 39.3001 104.36C37.4463 104.823 35.8005 105.892 34.6248 107.398C33.4492 108.904 32.8112 110.76 32.8126 112.671C32.8144 114.49 33.5378 116.234 34.8239 117.52C36.1101 118.806 37.8539 119.529 39.6727 119.531H42.4477C42.9091 119.532 43.3573 119.685 43.7219 119.968C44.0866 120.251 44.3471 120.646 44.4627 121.093C44.5782 121.54 44.5423 122.012 44.3604 122.436C44.1786 122.86 43.8611 123.212 43.4579 123.436L26.9204 132.623C25.6096 133.352 24.5778 134.496 23.987 135.874C23.3962 137.253 23.2798 138.788 23.656 140.24C24.0322 141.692 24.8798 142.978 26.0658 143.896C27.2517 144.814 28.7089 145.312 30.2087 145.312H45.2345C48.156 145.312 50.9578 144.152 53.0237 142.086C55.0895 140.02 56.2501 137.218 56.2501 134.297C56.2657 134.153 56.3233 134.017 56.4158 133.905C56.5082 133.793 56.6315 133.712 56.7702 133.67C56.9089 133.628 57.0568 133.627 57.1957 133.669C57.3345 133.71 57.458 133.792 57.5509 133.903L60.0306 137.625C60.6446 138.546 61.4765 139.301 62.4525 139.823C63.4284 140.346 64.5182 140.619 65.6251 140.619C66.732 140.619 67.8217 140.346 68.7977 139.823C69.7736 139.301 70.6055 138.546 71.2196 137.625C72.1527 136.24 73.4505 135.139 74.9696 134.445C80.0557 139.018 86.1783 142.286 92.8091 143.966C99.4399 145.645 106.38 145.686 113.03 144.085C119.68 142.484 125.841 139.288 130.98 134.775C136.12 130.261 140.084 124.565 142.531 118.177C144.977 111.789 145.833 104.902 145.024 98.1099C144.215 91.3177 141.765 84.8244 137.887 79.1902C134.008 73.5561 128.816 68.9503 122.76 65.7703C116.704 62.5904 109.965 60.9317 103.125 60.9375ZM131.398 78.5672L116.217 93.75H112.5V90.0328L127.683 74.8523C129.006 76.0024 130.248 77.2437 131.398 78.5672ZM134.297 82.3031C136.628 85.8043 138.35 89.6745 139.39 93.75H122.845L134.297 82.3031ZM112.5 66.8602C116.576 67.9002 120.446 69.6221 123.947 71.9531L112.5 83.4047V66.8602ZM66.8602 112.5H83.4048L71.9532 123.945C69.6217 120.445 67.8997 116.575 66.8602 112.5ZM71.9532 82.3031L83.4048 93.75H66.8602C67.9002 89.6745 69.6222 85.8043 71.9532 82.3031ZM90.0329 93.75L74.8524 78.5672C76.0039 77.2435 77.2459 76.0014 78.5696 74.85L93.7501 90.0328V93.75H90.0329ZM93.7501 83.4047L82.3055 71.9531C85.8055 69.6216 89.6751 67.8996 93.7501 66.8602V83.4047ZM58.5282 75.8906L50.8993 73.7109C50.416 73.5715 49.991 73.2791 49.688 72.8777C49.3851 72.4762 49.2204 71.9873 49.2188 71.4844C49.2188 69.3088 48.3546 67.2223 46.8162 65.6839C45.2778 64.1455 43.1913 63.2812 41.0157 63.2812C40.0833 63.2812 39.1891 62.9109 38.5298 62.2515C37.8705 61.5922 37.5001 60.698 37.5001 59.7656V53.9062C37.5001 52.0414 36.7593 50.253 35.4407 48.9344C34.1221 47.6158 32.3336 46.875 30.4688 46.875C29.8472 46.875 29.2511 46.6281 28.8115 46.1885C28.372 45.749 28.1251 45.1529 28.1251 44.5312V40.1203C28.1277 38.8969 27.7883 37.6971 27.1451 36.6563C26.5019 35.6156 25.5806 34.7753 24.4852 34.2305C24.169 34.075 23.903 33.8336 23.7177 33.5339C23.5324 33.2342 23.4353 32.8883 23.4376 32.5359V25.2422C23.4306 23.1005 24.0691 21.0064 25.2698 19.2329C26.4705 17.4595 28.1777 16.0889 30.1688 15.3C31.6441 14.7155 32.909 13.7 33.7987 12.386C34.6883 11.072 35.1615 9.52044 35.1563 7.93359C35.1576 7.07306 35.5 6.24812 36.1085 5.63963C36.717 5.03114 37.5419 4.68874 38.4024 4.6875H54.2485C54.6996 4.68729 55.1374 4.83943 55.4912 5.11925C55.8449 5.39907 56.0938 5.79018 56.1975 6.22915C56.3011 6.66812 56.2534 7.12924 56.0622 7.53773C55.8709 7.94622 55.5473 8.27814 55.1438 8.47969L50.5712 10.7648C49.2229 11.4386 48.1417 12.5479 47.5028 13.913C46.8639 15.2782 46.7048 16.8191 47.0512 18.2859C47.3977 19.7528 48.2294 21.0597 49.4115 21.9947C50.5936 22.9298 52.0569 23.4382 53.5641 23.4375H64.1649C64.9847 23.4432 65.7952 23.6117 66.5493 23.9331C67.3035 24.2545 67.9863 24.7225 68.5582 25.3099C69.1301 25.8972 69.5797 26.5923 69.8808 27.3548C70.182 28.1172 70.3287 28.9319 70.3126 29.7516C70.3188 30.9367 69.9927 32.0999 69.3713 33.109C68.7499 34.1182 67.858 34.933 66.797 35.4609L55.247 41.2336C53.8978 41.9078 52.816 43.0181 52.1773 44.3844C51.5386 45.7508 51.3804 47.2928 51.7283 48.7604C52.0763 50.228 52.91 51.5348 54.0941 52.469C55.2783 53.4031 56.7434 53.9096 58.2516 53.9062C61.7692 53.8965 65.2538 54.5846 68.5037 55.9307C71.7535 57.2768 74.704 59.2542 77.1845 61.7484L82.0618 66.6281C74.9801 70.7331 69.2369 76.7987 65.5243 84.0938C65.2856 82.193 64.4961 80.4036 63.253 78.946C62.0099 77.4884 60.3675 76.4263 58.5282 75.8906ZM67.3196 135.03C67.1234 135.295 66.8679 135.51 66.5737 135.658C66.2794 135.806 65.9545 135.884 65.6251 135.884C65.2956 135.884 64.9707 135.806 64.6765 135.658C64.3822 135.51 64.1268 135.295 63.9305 135.03L61.4509 131.309C60.8113 130.34 59.8764 129.605 58.7851 129.21C57.6938 128.816 56.5045 128.784 55.3938 129.12C54.2831 129.456 53.3103 130.141 52.6201 131.073C51.9298 132.006 51.559 133.137 51.5626 134.297C51.5626 135.975 50.8959 137.585 49.7091 138.772C48.5224 139.958 46.9128 140.625 45.2345 140.625H30.2087C29.7473 140.625 29.2992 140.471 28.9345 140.188C28.5698 139.906 28.3093 139.51 28.1937 139.063C28.0782 138.617 28.1142 138.144 28.296 137.72C28.4778 137.296 28.7953 136.944 29.1985 136.72L45.736 127.533C47.0468 126.804 48.0786 125.661 48.6694 124.282C49.2602 122.904 49.3766 121.368 49.0004 119.916C48.6242 118.464 47.7766 117.179 46.5906 116.261C45.4047 115.343 43.9475 114.844 42.4477 114.844H39.6727C39.0967 114.843 38.5444 114.614 38.1371 114.207C37.7298 113.799 37.5007 113.247 37.5001 112.671C37.4994 111.806 37.7881 110.965 38.3203 110.283C38.8524 109.601 39.5975 109.117 40.4368 108.907C42.2768 108.45 43.9107 107.39 45.0777 105.896C46.2447 104.402 46.8775 102.56 46.8751 100.664C46.8796 98.9066 46.5356 97.1656 45.8629 95.542C45.1903 93.9183 44.2024 92.4441 42.9563 91.2047C42.5886 90.8372 42.3381 90.369 42.2366 89.8591C42.1351 89.3492 42.1871 88.8207 42.3861 88.3404C42.5851 87.8602 42.9221 87.4497 43.3544 87.161C43.7868 86.8724 44.2951 86.7184 44.8149 86.7188C45.7841 86.7178 46.7384 86.9569 47.5927 87.4145C48.447 87.8721 49.1748 88.5341 49.711 89.3414L50.1446 89.9883C50.7958 90.9749 51.6485 91.8126 52.6466 92.4461C53.6448 93.0797 54.7657 93.4948 55.9357 93.6641C57.1057 93.8335 58.2983 93.7533 59.4351 93.4287C60.5718 93.1042 61.6271 92.5427 62.5313 91.7812C60.603 98.551 60.4189 105.699 61.9962 112.559C63.5735 119.419 66.8609 125.768 71.5524 131.016C69.8701 132.035 68.4266 133.404 67.3196 135.03ZM74.8501 127.68L90.0329 112.5H93.7501V116.217L78.5696 131.4C77.2446 130.248 76.0017 129.006 74.8501 127.68ZM93.7501 139.399C89.6745 138.357 85.8049 136.632 82.3055 134.297L93.7501 122.845V139.399ZM98.4376 140.309V110.156C98.4376 109.535 98.1907 108.939 97.7511 108.499C97.3116 108.059 96.7154 107.812 96.0938 107.812H65.9509C65.5165 104.703 65.5165 101.547 65.9509 98.4375H96.0938C96.7154 98.4375 97.3116 98.1906 97.7511 97.751C98.1907 97.3115 98.4376 96.7154 98.4376 96.0938V65.9508C101.547 65.5164 104.703 65.5164 107.813 65.9508V96.0938C107.813 96.7154 108.06 97.3115 108.499 97.751C108.939 98.1906 109.535 98.4375 110.156 98.4375H140.299C140.734 101.547 140.734 104.703 140.299 107.812H110.156C109.535 107.812 108.939 108.059 108.499 108.499C108.06 108.939 107.813 109.535 107.813 110.156V140.299C104.703 140.734 101.547 140.734 98.4376 140.299V140.309ZM139.39 112.5C138.35 116.575 136.628 120.445 134.297 123.945L122.845 112.5H139.39ZM112.5 122.845L123.947 134.297C120.446 136.628 116.576 138.35 112.5 139.39V122.845ZM127.683 131.398L112.5 116.217V112.5H116.217L131.4 127.68C130.249 129.004 129.007 130.246 127.683 131.398Z" fill="#FF4F88"/>
<path d="M6.43125 79.6875C7.78004 79.6874 9.09456 79.2627 10.1884 78.4734C11.2822 77.6842 12.0997 76.5707 12.525 75.2907C12.7805 74.5222 13.2718 73.854 13.9291 73.381C14.5864 72.908 15.3762 72.6544 16.1859 72.6563C16.4406 72.6561 16.6889 72.7362 16.8954 72.8851C17.102 73.034 17.2564 73.2443 17.3367 73.486C17.9372 75.2927 19.0917 76.8643 20.6362 77.9776C22.1807 79.0908 24.0367 79.6892 25.9406 79.6875C27.7626 79.6857 29.5094 78.9611 30.7977 77.6728C32.086 76.3844 32.8106 74.6376 32.8125 72.8157C32.8092 69.2625 31.983 65.7584 30.3984 62.5782C29.4516 60.6728 27.9906 59.0704 26.1806 57.9521C24.3706 56.8338 22.2838 56.2442 20.1562 56.25H12.4219C9.12739 56.25 5.96784 57.5588 3.63828 59.8883C1.30873 62.2179 0 65.3774 0 68.6719V73.2516C-4.52517e-07 74.9577 0.677426 76.594 1.88338 77.8008C3.08934 79.0077 4.72515 79.6863 6.43125 79.6875ZM4.6875 68.6719C4.6875 66.6206 5.50237 64.6534 6.95285 63.2029C8.40332 61.7524 10.3706 60.9375 12.4219 60.9375H20.1562C21.4157 60.9337 22.651 61.283 23.722 61.9459C24.7929 62.6087 25.6565 63.5586 26.2148 64.6875C27.47 67.2133 28.1238 69.9952 28.125 72.8157C28.1244 73.3948 27.894 73.9501 27.4845 74.3596C27.075 74.7691 26.5198 74.9994 25.9406 75C25.0231 74.9982 24.1294 74.7081 23.3858 74.1706C22.6422 73.6331 22.0863 72.8754 21.7969 72.0047C21.4056 70.827 20.6525 69.8028 19.645 69.0781C18.6375 68.3534 17.427 67.9652 16.1859 67.9688C14.3932 67.9669 12.6454 68.53 11.1909 69.5781C9.73641 70.6261 8.64916 72.1059 8.08359 73.8071C7.95436 74.2011 7.68873 74.5362 7.3345 74.7518C6.98026 74.9675 6.56069 75.0497 6.15127 74.9836C5.74186 74.9174 5.36947 74.7074 5.10114 74.3912C4.8328 74.075 4.68612 73.6734 4.6875 73.2586V68.6719Z" fill="#FF4F88"/>
<path d="M6.96094 30.4688H7.10156C8.94736 30.4663 10.7168 29.7318 12.0218 28.4264C13.3267 27.121 14.0606 25.3513 14.0625 23.5055C14.0575 21.5611 14.4381 19.6351 15.1824 17.8388C15.9266 16.0425 17.0197 14.4117 18.3984 13.0406L18.9516 12.4875C19.9747 11.4645 20.6714 10.1611 20.9537 8.74205C21.236 7.32304 21.0912 5.85218 20.5375 4.5155C19.9838 3.17882 19.0461 2.03635 17.8431 1.23259C16.6401 0.428837 15.2257 -0.000110999 13.7789 2.15441e-08C12.0489 0.0036054 10.3432 0.407481 8.79527 1.18002C7.24734 1.95257 5.89917 3.07282 4.85625 4.45312C1.71291 8.66524 0.0100609 13.7779 0 19.0336V23.5055C0.00186027 25.3513 0.735765 27.121 2.04072 28.4264C3.34568 29.7318 5.11514 30.4663 6.96094 30.4688ZM4.6875 19.0336C4.69455 14.7916 6.06874 10.6649 8.60625 7.26562C9.21079 6.46561 9.99242 5.81651 10.8899 5.36921C11.7873 4.92191 12.7762 4.68858 13.7789 4.6875C14.2988 4.68719 14.807 4.84111 15.2394 5.12979C15.6718 5.41846 16.0087 5.82891 16.2077 6.30919C16.4067 6.78947 16.4588 7.31798 16.3572 7.82784C16.2557 8.3377 16.0053 8.80599 15.6375 9.17344L15.0844 9.72656C13.2689 11.5317 11.8295 13.679 10.8495 16.0441C9.86946 18.4093 9.3683 20.9453 9.375 23.5055C9.37438 24.1084 9.13473 24.6866 8.70858 25.1132C8.28243 25.5398 7.70454 25.78 7.10156 25.7812H6.96094C6.35796 25.78 5.78007 25.5398 5.35392 25.1132C4.92777 24.6866 4.68812 24.1084 4.6875 23.5055V19.0336Z" fill="#FF4F88"/>
</svg>
